HIERARCHY
ROOT Hips
{
	OFFSET 103.898903 91.744438 377.834412
	CHANNELS 6 Xposition Yposition Zposition Zrotation Yrotation Xrotation 
	JOINT LeftUpLeg
	{
		OFFSET 0.103458 1.857842 10.548504
		CHANNELS 3 Xrotation Yrotation Zrotation
		JOINT LeftLeg
		{
			OFFSET 43.500000 -0.000038 0.000000
			CHANNELS 3 Xrotation Yrotation Zrotation
			JOINT LeftFoot
			{
				OFFSET 42.372200 0.000008 0.000004
				CHANNELS 3 Xrotation Yrotation Zrotation
				JOINT LeftToe
				{
					OFFSET 17.299992 -0.000003 -0.000013
					CHANNELS 3 Xrotation Yrotation Zrotation
					End Site
					{
						OFFSET 0.000000 0.000000 0.000000
					}
				}
			}
		}
	}
	JOINT RightUpLeg
	{
		OFFSET 0.103456 1.857816 -10.548503
		CHANNELS 3 Xrotation Yrotation Zrotation
		JOINT RightLeg
		{
			OFFSET 43.500042 -0.000023 0.000008
			CHANNELS 3 Xrotation Yrotation Zrotation
			JOINT RightFoot
			{
				OFFSET 42.372265 -0.000008 0.000010
				CHANNELS 3 Xrotation Yrotation Zrotation
				JOINT RightToe
				{
					OFFSET 17.300022 0.000005 0.000000
					CHANNELS 3 Xrotation Yrotation Zrotation
					End Site
					{
						OFFSET 0.000000 0.000000 0.000000
					}
				}
			}
		}
	}
	JOINT Spine
	{
		OFFSET 6.901966 -2.603735 -0.000002
		CHANNELS 3 Xrotation Yrotation Zrotation
		JOINT Spine1
		{
			OFFSET 12.588103 0.000016 0.000000
			CHANNELS 3 Xrotation Yrotation Zrotation
			JOINT Spine2
			{
				OFFSET 12.343200 0.000002 -0.000002
				CHANNELS 3 Xrotation Yrotation Zrotation
				JOINT Neck
				{
					OFFSET 25.832891 -0.000029 0.000006
					CHANNELS 3 Xrotation Yrotation Zrotation
					JOINT Head
					{
						OFFSET 11.766613 0.000029 -0.000002
						CHANNELS 3 Xrotation Yrotation Zrotation
						End Site
						{
							OFFSET 0.000000 0.000000 0.000000
						}
					}
				}
				JOINT LeftShoulder
				{
					OFFSET 19.745903 -1.480385 6.000109
					CHANNELS 3 Xrotation Yrotation Zrotation
					JOINT LeftArm
					{
						OFFSET 11.284124 -0.000024 -0.000022
						CHANNELS 3 Xrotation Yrotation Zrotation
						JOINT LeftForeArm
						{
							OFFSET 33.000057 0.000000 0.000033
							CHANNELS 3 Xrotation Yrotation Zrotation
							JOINT LeftHand
							{
								OFFSET 25.199997 0.000045 -0.000004
								CHANNELS 3 Xrotation Yrotation Zrotation
								End Site
								{
									OFFSET 0.000000 0.000000 0.000000
								}
							}
						}
					}
				}
				JOINT RightShoulder
				{
					OFFSET 19.746105 -1.480396 -6.000069
					CHANNELS 3 Xrotation Yrotation Zrotation
					JOINT RightArm
					{
						OFFSET 11.284142 -0.000028 -0.000010
						CHANNELS 3 Xrotation Yrotation Zrotation
						JOINT RightForeArm
						{
							OFFSET 33.000084 0.000033 0.000011
							CHANNELS 3 Xrotation Yrotation Zrotation
							JOINT RightHand
							{
								OFFSET 25.199783 0.000119 0.000426
								CHANNELS 3 Xrotation Yrotation Zrotation
								End Site
								{
									OFFSET 0.000000 0.000000 0.000000
								}
							}
						}
					}
				}
			}
		}
	}
}
MOTION
Frames: 17
Frame Time: 0.033333
226.386200 87.068817 392.023712 81.728766 -0.906423 46.217226 168.531926 -4.217410 -175.810135 -45.693549 2.054738 5.822406 100.442890 -3.799681 2.252812 21.454560 0.003111 0.000017 158.137416 1.213997 179.124634 -18.652791 3.260036 0.639367 66.792796 3.453977 10.778211 21.454553 -0.003088 -0.000000 11.318503 -0.867707 -0.728619 12.636673 -1.650472 -1.547867 12.318573 -1.659916 -1.537883 17.320035 -3.269926 -24.053039 -15.596409 32.165471 -36.380152 155.786930 -75.039074 23.324604 -21.612349 44.442378 28.001587 -38.746120 -20.228614 1.793051 5.200275 -13.917125 5.460006 -169.474793 79.832405 12.224743 -15.532603 -60.641705 -22.913528 -53.217436 18.909968 -2.119686 -7.458708 22.148593 -1.502412 
227.548203 87.374802 391.670502 81.214952 -1.565408 42.698791 168.948144 -4.393603 -176.287469 -44.847104 1.749186 3.965580 99.965911 -2.557123 2.137257 21.454557 0.003111 0.000018 158.701098 0.958209 179.304200 -21.061431 3.480439 0.947929 66.732956 2.897312 9.888277 21.454555 -0.003095 -0.000001 11.279548 -0.810521 -0.607438 12.556208 -1.550167 -1.299418 12.238077 -1.558113 -1.290041 17.713378 -2.725478 -24.378371 -15.891902 31.899384 -36.722929 155.859890 -75.491301 23.225631 -21.109543 44.856940 27.977455 -39.846931 -20.611979 1.847432 4.934683 -13.839531 6.006354 -170.213368 79.847971 11.474083 -15.058259 -60.956331 -24.656850 -51.387973 19.000135 -2.063372 -7.402476 22.385581 -1.331907 
228.626007 87.633293 391.377411 80.862261 -2.224316 39.009529 169.341044 -4.608990 -177.262971 -44.049724 1.579538 2.295203 99.527946 -1.445902 1.972588 21.454558 0.003113 0.000018 159.210248 1.100406 178.988536 -23.795197 4.074861 0.874661 68.016301 2.889815 10.082709 21.454553 -0.003093 0.000001 11.242001 -0.764219 -0.501149 12.479153 -1.469783 -1.081937 12.161000 -1.476425 -1.073052 17.851567 -2.513257 -24.485506 -16.080751 31.935823 -36.911254 155.390478 -75.597394 23.698140 -19.855380 45.084552 28.214536 -41.300088 -20.719831 1.894569 4.872922 -14.408979 5.205116 -170.918408 80.111589 10.758583 -14.660053 -61.219710 -26.286692 -49.614959 19.058063 -2.008530 -7.308120 22.345300 -1.246332 
229.629593 87.858803 391.132385 80.717892 -2.831650 35.393979 169.642583 -4.838591 -178.852356 -43.260714 1.625318 1.010820 99.100014 -0.597653 1.797713 21.454560 0.003108 0.000017 159.719657 1.505202 179.622186 -26.557577 4.227414 0.180211 69.989980 2.951293 9.357591 21.454553 -0.003089 0.000000 11.184204 -0.752486 -0.465893 12.362948 -1.450737 -1.009657 12.044793 -1.456939 -1.000891 17.935126 -2.317742 -24.382524 -16.081832 32.056916 -36.850728 156.077882 -75.648047 22.995131 -18.691562 45.114035 28.745025 -42.580472 -20.668690 1.927672 4.655322 -15.078672 4.247500 -172.339374 80.334663 9.316432 -14.263259 -61.277438 -27.621109 -47.929633 18.982786 -1.949334 -7.325250 22.211651 -1.711808 
230.557907 88.129730 390.937897 80.753395 -3.346974 32.070979 169.964545 -4.949408 -179.908385 -42.227498 1.369690 -0.340206 98.513806 0.305650 1.653186 21.454558 0.003112 0.000018 160.404602 2.363096 -179.187568 -28.796515 4.239275 -0.489508 71.162115 3.119939 8.714607 21.454551 -0.003091 0.000001 11.121034 -0.758270 -0.480680 12.236862 -1.461309 -1.039006 11.918706 -1.467690 -1.030168 18.091759 -2.066849 -24.307805 -16.135589 32.271291 -36.871578 156.567689 -75.711158 22.492756 -17.851499 45.095976 29.556995 -43.510484 -20.644450 1.953213 4.362183 -14.959299 3.518547 -172.423413 80.399823 9.231527 -13.889979 -61.266373 -28.511774 -46.503087 18.775707 -1.891050 -7.221078 22.216645 -2.607119 
231.412201 88.375587 390.783813 80.867452 -3.918472 28.932002 170.153891 -5.163099 178.740764 -41.296065 1.300317 -1.430875 97.992232 1.030457 1.524198 21.454560 0.003108 0.000017 161.152562 3.445698 -177.706509 -30.617682 4.231465 -1.134227 71.853242 3.425829 8.397245 21.454553 -0.003092 -0.000001 11.060064 -0.730826 -0.505493 12.114848 -1.404564 -1.084860 11.796715 -1.411223 -1.076368 18.206677 -1.807172 -24.350003 -16.019399 32.462574 -36.944439 156.812250 -75.737816 22.242251 -17.231606 44.923923 30.727658 -44.311347 -20.635362 1.976423 4.236396 -14.716532 3.453920 -171.862886 80.416120 9.800785 -13.114740 -61.338493 -29.217995 -45.407497 18.538330 -1.842010 -6.712345 22.169609 -3.171204 
232.175293 88.525620 390.638885 81.049326 -4.505873 25.894289 170.149260 -5.507506 177.243532 -40.734459 1.246012 -2.329243 97.681206 1.623638 1.408592 21.454555 0.003112 0.000018 161.814244 4.608994 -176.152109 -32.094939 4.131691 -1.621461 72.254386 3.737871 8.371533 21.454553 -0.003093 -0.000000 11.016192 -0.694143 -0.526496 12.026897 -1.329661 -1.122397 11.708780 -1.336549 -1.114356 18.178653 -1.475050 -24.443855 -15.900493 32.564870 -37.034652 156.245099 -75.925353 22.809949 -16.821970 45.029323 31.717865 -45.207390 -20.915492 2.022131 4.382742 -14.320669 3.964171 -171.826604 80.357715 9.837288 -12.178507 -61.322033 -30.047624 -44.341175 18.529926 -1.809732 -6.006848 22.281196 -2.870997 
232.866196 88.618240 390.516296 81.279968 -5.087535 22.933473 169.990335 -5.854598 175.778497 -40.496550 1.275083 -3.213715 97.438359 2.196503 1.199439 21.454558 0.003117 0.000019 162.422076 5.805207 -174.995088 -33.185164 4.140041 -1.992180 72.476496 4.120754 8.789604 21.454551 -0.003093 -0.000000 10.986635 -0.646116 -0.547927 11.967343 -1.231970 -1.159837 11.649231 -1.239089 -1.152387 18.142832 -1.290033 -24.487977 -16.044861 32.712341 -37.180599 155.561520 -76.168958 23.492712 -16.714200 45.263100 32.234531 -46.009681 -21.074605 2.057455 4.269214 -14.219131 4.792609 -172.773829 80.457170 8.876098 -11.393049 -61.242365 -30.727259 -43.199850 18.463854 -1.772241 -5.119749 22.563332 -1.604478 
233.496902 88.637177 390.437805 81.527474 -5.620921 20.021911 169.763874 -6.178803 174.288628 -40.519080 1.379470 -4.089068 97.341022 2.753552 0.923795 21.454563 0.003106 0.000016 162.950951 6.902403 -173.767744 -33.990877 3.907038 -2.309554 72.628045 4.505270 9.298033 21.454553 -0.003090 0.000000 10.971588 -0.590643 -0.552061 11.936573 -1.121056 -1.162187 11.618500 -1.128188 -1.155406 18.255772 -1.310065 -24.384880 -16.500178 32.882286 -37.297713 155.079636 -76.246037 23.978935 -16.832445 45.360331 32.298622 -46.741194 -20.982269 2.074216 3.714969 -14.025012 5.282754 -173.962432 80.702824 7.671553 -10.636336 -61.207613 -31.084259 -42.220398 18.198841 -1.727067 -4.085467 22.806615 -0.449059 
234.012497 88.622803 390.407898 81.777630 -6.123834 17.123412 169.600660 -6.570694 172.687796 -40.645711 1.474329 -4.906229 97.351929 3.270086 0.631371 21.454560 0.003116 0.000019 163.492585 7.930999 -172.855928 -34.423156 4.051932 -1.742543 72.488361 4.206117 9.615085 21.454551 -0.003091 0.000000 10.959342 -0.544803 -0.522638 11.911286 -1.032785 -1.098641 11.593185 -1.039536 -1.092395 18.359719 -1.375880 -24.277520 -16.824851 32.956633 -37.331560 154.871999 -76.336134 24.185234 -17.225083 45.365970 32.305507 -47.316866 -20.854758 2.083961 3.263769 -14.127435 5.829575 -174.886051 80.828185 6.735446 -9.913920 -61.166905 -31.597374 -41.323208 18.109914 -1.696349 -3.227942 22.448038 0.618663 
234.455200 88.622726 390.448792 82.081846 -6.588549 14.235230 169.515979 -6.914093 171.044056 -40.682683 1.594481 -5.718656 97.342852 3.782925 0.320327 21.454558 0.003115 0.000019 164.062223 9.096696 -172.078051 -34.614456 4.507609 -0.683451 72.235042 3.349730 9.279948 21.454551 -0.003092 -0.000000 10.938451 -0.501585 -0.479077 11.868672 -0.951261 -1.007128 11.550577 -0.957461 -1.001376 18.537453 -1.180715 -23.994519 -17.229451 32.594592 -37.060815 154.662612 -76.295911 24.400538 -17.700792 45.295666 32.192164 -47.790000 -20.792506 2.094953 3.183405 -14.157698 6.440092 -175.853602 80.797258 5.753386 -9.335376 -61.125050 -31.952851 -40.403615 18.207401 -1.677747 -2.486191 21.158022 0.968570 
234.790802 88.625557 390.541687 82.401588 -6.940805 11.271118 169.606875 -7.181397 169.286006 -40.609699 1.732478 -6.482715 97.317963 4.260736 -0.015318 21.454560 0.003110 0.000017 164.646136 10.193694 -170.537652 -34.609798 4.564843 0.673918 71.780917 2.075289 8.226104 21.454557 -0.003092 0.000000 10.919895 -0.465600 -0.431456 11.830803 -0.884532 -0.908299 11.512704 -0.890136 -0.902951 18.495150 -0.985682 -23.607719 -17.358234 32.062930 -36.518054 155.245897 -76.322719 23.805475 -18.453499 45.343338 32.008056 -48.095002 -20.774785 2.103593 3.289826 -14.070299 7.098757 -176.820607 80.726334 4.771365 -9.087917 -61.039270 -32.059808 -39.485067 18.228083 -1.654693 -1.641369 19.791592 0.823148 
234.998596 88.650223 390.691193 82.824213 -7.123196 8.143676 169.874413 -7.243103 167.422403 -40.294288 1.885020 -7.283159 97.229423 4.757639 -0.416814 21.454560 0.003114 0.000018 165.062409 11.214204 -168.413313 -34.416900 4.645894 2.943510 71.156747 -0.086556 6.473616 21.454555 -0.003094 -0.000001 10.866934 -0.454920 -0.367766 11.724312 -0.870125 -0.779774 11.406208 -0.874956 -0.774514 18.209732 -1.043444 -23.120684 -17.196009 31.855896 -35.881344 155.698602 -76.381643 23.341526 -19.090640 45.506764 32.062373 -48.301346 -20.732411 2.107433 3.324042 -13.945042 7.653618 -177.120793 80.920974 4.469390 -9.298639 -61.221936 -32.129623 -38.424175 18.183492 -1.624301 -0.529848 18.184791 0.806895 
235.053604 88.720589 390.844788 83.303712 -7.071209 4.950378 170.380517 -7.021393 165.685431 -39.621330 1.974778 -8.186695 97.002702 5.317234 -0.913091 21.454560 0.003108 0.000018 165.551723 12.393005 -164.973575 -33.824965 4.589595 5.296473 70.917642 -2.230927 5.033554 21.454550 -0.003095 -0.000001 10.785689 -0.485875 -0.320784 11.561782 -0.937163 -0.688550 11.243651 -0.941441 -0.682889 17.951820 -1.188001 -22.650449 -17.222105 31.502458 -35.274266 156.266928 -76.363660 22.764156 -19.565394 45.676497 32.372921 -48.361626 -20.598153 2.100402 3.491128 -13.707329 7.571383 -177.607636 81.181846 3.979370 -9.512953 -61.527164 -32.297096 -37.588324 18.155922 -1.601384 0.408763 15.950117 0.629190 
235.030197 88.840477 391.053192 83.837594 -6.889968 1.437012 171.079491 -6.590301 163.919827 -38.608536 1.986792 -9.246790 96.645285 5.977815 -1.481454 21.454557 0.003109 0.000018 165.739185 13.164400 -159.897488 -33.029627 3.976995 8.682347 71.229454 -5.230252 3.190974 21.454550 -0.003083 0.000001 10.672603 -0.557470 -0.220808 11.335204 -1.090532 -0.495215 11.017061 -1.093639 -0.488627 17.928034 -1.206073 -22.136273 -17.634824 30.845746 -34.645735 156.577989 -76.175174 22.457589 -19.864784 45.823165 32.874175 -48.258671 -20.473306 2.088709 3.634323 -13.460746 7.317288 -178.320393 81.204645 3.257010 -9.380118 -61.609836 -32.592105 -37.183386 18.043760 -1.584046 1.070724 13.812114 -0.236255 
234.886703 88.972366 391.230591 84.358635 -6.731099 -2.190918 171.871711 -6.205597 162.077015 -37.532135 1.992687 -10.296107 96.294807 6.621546 -2.138158 21.454560 0.003110 0.000017 165.878357 13.448809 -154.687297 -32.220823 3.411469 11.501091 72.083610 -7.545012 2.152712 21.454548 -0.003095 -0.000001 10.542580 -0.601543 -0.108747 11.074325 -1.189828 -0.274612 10.756159 -1.191602 -0.267428 17.908592 -1.405810 -21.567360 -18.000185 30.301694 -33.981065 156.751107 -75.954053 22.293094 -20.038995 46.133833 33.502740 -48.167488 -20.367691 2.078706 3.630507 -13.258152 7.467261 -179.186174 81.311988 2.381048 -8.982889 -61.686751 -33.308698 -37.061949 18.035198 -1.580497 1.314841 12.007346 -1.466089 
234.610901 89.094971 391.342407 84.789743 -6.607300 -5.751404 172.773515 -5.828597 160.450788 -36.464744 1.967472 -11.423961 95.983610 7.303844 -2.936179 21.454557 0.003111 0.000018 166.115897 13.457106 -150.659643 -31.715358 3.659947 13.582412 71.780043 -8.849610 2.731437 21.454557 -0.003101 0.000000 10.430114 -0.611654 -0.037529 10.848689 -1.217010 -0.132274 10.530519 -1.217923 -0.124930 17.745383 -1.556347 -20.916718 -18.210970 29.780605 -33.183378 156.783031 -75.720502 22.272881 -20.013079 46.539895 34.150133 -48.270962 -20.247175 2.073988 3.608988 -13.065747 7.863381 179.554909 81.593399 1.110290 -8.535943 -61.860402 -34.009609 -37.197036 18.061114 -1.585499 0.914153 10.566594 -2.884985 
